<?xml version="1.0" encoding="UTF-8" standalone="no"?>
<svg width="262px" height="99px" viewBox="0 0 262 99" version="1.1" xmlns="http://www.w3.org/2000/svg" xmlns:xlink="http://www.w3.org/1999/xlink" xmlns:sketch="http://www.bohemiancoding.com/sketch/ns">
    <!-- Generator: Sketch 3.4.2 (15857) - http://www.bohemiancoding.com/sketch -->
    <title>logo_gsea</title>
    <desc>Created with Sketch.</desc>
    <defs></defs>
    <g id="Page-1" stroke="none" stroke-width="1" fill="none" fill-rule="evenodd" sketch:type="MSPage">
        <g id="Artboard-8" sketch:type="MSArtboardGroup" transform="translate(-12.000000, -5.000000)">
            <g id="logo_gsea" sketch:type="MSLayerGroup" transform="translate(12.000000, 5.000000)">
                <path d="M21.157,95 L20.13,95 L24.108,85.796 L25.018,85.796 L28.97,95 L27.93,95 L26.916,92.582 L22.158,92.582 L21.157,95 Z M22.509,91.724 L26.565,91.724 L24.537,86.836 L22.509,91.724 Z M30.563,88.916 C30.5803334,89.0806675 30.5933333,89.2626657 30.602,89.462 C30.6106667,89.6613343 30.615,89.8259994 30.615,89.956 L30.641,89.956 C30.8143342,89.6006649 31.0959981,89.3125011 31.486,89.0915 C31.876002,88.8704989 32.2876645,88.76 32.721,88.76 C33.4923372,88.76 34.0708314,88.9896644 34.4565,89.449 C34.8421686,89.9083356 35.035,90.5149962 35.035,91.269 L35.035,95 L34.151,95 L34.151,91.633 C34.151,91.3123317 34.1250003,91.0220013 34.073,90.762 C34.0209997,90.5019987 33.9321673,90.2788343 33.8065,90.0925 C33.6808327,89.9061657 33.5118344,89.7610005 33.2995,89.657 C33.0871656,89.5529995 32.8206683,89.501 32.5,89.501 C32.2659988,89.501 32.0385011,89.5486662 31.8175,89.644 C31.5964989,89.7393338 31.3993342,89.884499 31.226,90.0795 C31.0526658,90.274501 30.9140005,90.5214985 30.81,90.8205 C30.7059995,91.1195015 30.654,91.4726646 30.654,91.88 L30.654,95 L29.77,95 L29.77,90.255 C29.77,90.0903325 29.7656667,89.8780013 29.757,89.618 C29.7483333,89.3579987 29.7353334,89.124001 29.718,88.916 L30.563,88.916 Z M40.561,94.168 L45.488,94.168 L45.488,95 L39.625,95 L39.625,85.796 L45.332,85.796 L45.332,86.628 L40.561,86.628 L40.561,89.8 L45.02,89.8 L45.02,90.619 L40.561,90.619 L40.561,94.168 Z M47.562,88.916 C47.5793334,89.0806675 47.5923333,89.2626657 47.601,89.462 C47.6096667,89.6613343 47.614,89.8259994 47.614,89.956 L47.64,89.956 C47.8133342,89.6006649 48.0949981,89.3125011 48.485,89.0915 C48.875002,88.8704989 49.2866645,88.76 49.72,88.76 C50.4913372,88.76 51.0698314,88.9896644 51.4555,89.449 C51.8411686,89.9083356 52.034,90.5149962 52.034,91.269 L52.034,95 L51.15,95 L51.15,91.633 C51.15,91.3123317 51.1240003,91.0220013 51.072,90.762 C51.0199997,90.5019987 50.9311673,90.2788343 50.8055,90.0925 C50.6798327,89.9061657 50.5108344,89.7610005 50.2985,89.657 C50.0861656,89.5529995 49.8196683,89.501 49.499,89.501 C49.2649988,89.501 49.0375011,89.5486662 48.8165,89.644 C48.5954989,89.7393338 48.3983342,89.884499 48.225,90.0795 C48.0516658,90.274501 47.9130005,90.5214985 47.809,90.8205 C47.7049995,91.1195015 47.653,91.4726646 47.653,91.88 L47.653,95 L46.769,95 L46.769,90.255 C46.769,90.0903325 46.7646667,89.8780013 46.756,89.618 C46.7473333,89.3579987 46.7343334,89.124001 46.717,88.916 L47.562,88.916 Z M56.565,89.657 L54.849,89.657 L54.849,93.206 C54.849,93.4313345 54.8706665,93.6176659 54.914,93.765 C54.9573336,93.9123341 55.0201663,94.0271663 55.1025,94.1095 C55.1848337,94.1918337 55.2823328,94.2481665 55.395,94.2785 C55.5076672,94.3088335 55.6289994,94.324 55.759,94.324 C55.8803339,94.324 56.008166,94.3066668 56.1425,94.272 C56.276834,94.2373332 56.4046661,94.189667 56.526,94.129 L56.565,94.896 C56.4089992,94.956667 56.2465008,95.0021665 56.0775,95.0325 C55.9084992,95.0628335 55.7243343,95.078 55.525,95.078 C55.3603325,95.078 55.1870009,95.0563336 55.005,95.013 C54.8229991,94.9696665 54.6540008,94.8873339 54.498,94.766 C54.3419992,94.6446661 54.2141672,94.480001 54.1145,94.272 C54.0148328,94.063999 53.965,93.7910017 53.965,93.453 L53.965,89.657 L52.704,89.657 L52.704,88.916 L53.965,88.916 L53.965,87.2 L54.849,87.2 L54.849,88.916 L56.565,88.916 L56.565,89.657 Z M57.443,90.255 C57.443,90.0903325 57.4386667,89.8780013 57.43,89.618 C57.4213333,89.3579987 57.4083334,89.124001 57.391,88.916 L58.236,88.916 C58.2533334,89.0806675 58.2663333,89.2626657 58.275,89.462 C58.2836667,89.6613343 58.288,89.8259994 58.288,89.956 L58.314,89.956 C58.4873342,89.6006649 58.7473316,89.3125011 59.094,89.0915 C59.4406684,88.8704989 59.8306645,88.76 60.264,88.76 C60.3766672,88.76 60.4784995,88.7643333 60.5695,88.773 C60.6605005,88.7816667 60.7536662,88.7989999 60.849,88.825 L60.732,89.657 C60.6799997,89.6396666 60.5933339,89.6223334 60.472,89.605 C60.3506661,89.5876666 60.2293339,89.579 60.108,89.579 C59.8739988,89.579 59.6486678,89.6223329 59.432,89.709 C59.2153323,89.7956671 59.0268341,89.9321657 58.8665,90.1185 C58.7061659,90.3048343 58.5761672,90.5431652 58.4765,90.8335 C58.3768328,91.1238348 58.327,91.4726646 58.327,91.88 L58.327,95 L57.443,95 L57.443,90.255 Z M66.03,91.49 C66.0039999,90.9179971 65.819835,90.4435019 65.4775,90.0665 C65.135165,89.6894981 64.6476698,89.501 64.015,89.501 C63.7203319,89.501 63.4473346,89.5551661 63.196,89.6635 C62.9446654,89.7718339 62.7236676,89.9191657 62.533,90.1055 C62.3423324,90.2918343 62.1906672,90.5041655 62.078,90.7425 C61.9653328,90.9808345 61.9003334,91.2299987 61.883,91.49 L66.03,91.49 Z M66.927,91.776 L66.927,91.971 C66.927,92.0403337 66.9226667,92.1139996 66.914,92.192 L61.87,92.192 C61.8786667,92.4953349 61.9393328,92.781332 62.052,93.05 C62.1646672,93.318668 62.3206657,93.5526657 62.52,93.752 C62.7193343,93.9513343 62.953332,94.1094994 63.222,94.2265 C63.490668,94.3435006 63.7809984,94.402 64.093,94.402 C64.5523356,94.402 64.9488317,94.2958344 65.2825,94.0835 C65.6161683,93.8711656 65.8696658,93.6263347 66.043,93.349 L66.706,93.869 C66.3419982,94.3283356 65.9411689,94.6576657 65.5035,94.857 C65.0658311,95.0563343 64.5956692,95.156 64.093,95.156 C63.6423311,95.156 63.2241686,95.0758341 62.8385,94.9155 C62.4528314,94.7551659 62.1213347,94.5320014 61.844,94.246 C61.5666653,93.9599986 61.3478341,93.622002 61.1875,93.232 C61.0271659,92.8419981 60.947,92.4173356 60.947,91.958 C60.947,91.4986644 61.0249992,91.074002 61.181,90.684 C61.3370008,90.2939981 61.5536653,89.9560014 61.831,89.67 C62.1083347,89.3839986 62.4333315,89.1608341 62.806,89.0005 C63.1786685,88.8401659 63.5816645,88.76 64.015,88.76 C64.4916691,88.76 64.9119982,88.8401659 65.276,89.0005 C65.6400018,89.1608341 65.9433321,89.3774986 66.186,89.6505 C66.4286679,89.9235014 66.6128327,90.2419982 66.7385,90.606 C66.8641673,90.9700018 66.927,91.3599979 66.927,91.776 L66.927,91.776 Z M69.209,98.12 L68.325,98.12 L68.325,88.916 L69.209,88.916 L69.209,89.969 L69.248,89.969 C69.4993346,89.5703313 69.8351646,89.2691677 70.2555,89.0655 C70.6758354,88.8618323 71.1026645,88.76 71.536,88.76 C72.0126691,88.76 72.4438314,88.8423325 72.8295,89.007 C73.2151686,89.1716675 73.5444986,89.3969986 73.8175,89.683 C74.0905014,89.9690014 74.3028326,90.3069981 74.4545,90.697 C74.6061674,91.087002 74.682,91.5073311 74.682,91.958 C74.682,92.4086689 74.6061674,92.8289981 74.4545,93.219 C74.3028326,93.609002 74.0905014,93.9469986 73.8175,94.233 C73.5444986,94.5190014 73.2151686,94.7443325 72.8295,94.909 C72.4438314,95.0736675 72.0126691,95.156 71.536,95.156 C71.1026645,95.156 70.6758354,95.0541677 70.2555,94.8505 C69.8351646,94.6468323 69.4993346,94.3543352 69.248,93.973 L69.209,93.973 L69.209,98.12 Z M73.746,91.958 C73.746,91.6199983 73.6940005,91.3015015 73.59,91.0025 C73.4859995,90.7034985 73.336501,90.4435011 73.1415,90.2225 C72.946499,90.0014989 72.7060014,89.8260007 72.42,89.696 C72.1339986,89.5659994 71.8090018,89.501 71.445,89.501 C71.1069983,89.501 70.7950014,89.5638327 70.509,89.6895 C70.2229986,89.8151673 69.976001,89.9884989 69.768,90.2095 C69.559999,90.4305011 69.3975006,90.6904985 69.2805,90.9895 C69.1634994,91.2885015 69.105,91.6113316 69.105,91.958 C69.105,92.3046684 69.1634994,92.6274985 69.2805,92.9265 C69.3975006,93.2255015 69.559999,93.4833323 69.768,93.7 C69.976001,93.9166678 70.2229986,94.0878327 70.509,94.2135 C70.7950014,94.3391673 71.1069983,94.402 71.445,94.402 C71.8090018,94.402 72.1339986,94.3391673 72.42,94.2135 C72.7060014,94.0878327 72.946499,93.9145011 73.1415,93.6935 C73.336501,93.4724989 73.4859995,93.2125015 73.59,92.9135 C73.6940005,92.6144985 73.746,92.2960017 73.746,91.958 L73.746,91.958 Z M76.08,90.255 C76.08,90.0903325 76.0756667,89.8780013 76.067,89.618 C76.0583333,89.3579987 76.0453334,89.124001 76.028,88.916 L76.873,88.916 C76.8903334,89.0806675 76.9033333,89.2626657 76.912,89.462 C76.9206667,89.6613343 76.925,89.8259994 76.925,89.956 L76.951,89.956 C77.1243342,89.6006649 77.3843316,89.3125011 77.731,89.0915 C78.0776684,88.8704989 78.4676645,88.76 78.901,88.76 C79.0136672,88.76 79.1154995,88.7643333 79.2065,88.773 C79.2975005,88.7816667 79.3906662,88.7989999 79.486,88.825 L79.369,89.657 C79.3169997,89.6396666 79.2303339,89.6223334 79.109,89.605 C78.9876661,89.5876666 78.8663339,89.579 78.745,89.579 C78.5109988,89.579 78.2856678,89.6223329 78.069,89.709 C77.8523323,89.7956671 77.6638341,89.9321657 77.5035,90.1185 C77.3431659,90.3048343 77.2131672,90.5431652 77.1135,90.8335 C77.0138328,91.1238348 76.964,91.4726646 76.964,91.88 L76.964,95 L76.08,95 L76.08,90.255 Z M84.667,91.49 C84.6409999,90.9179971 84.456835,90.4435019 84.1145,90.0665 C83.772165,89.6894981 83.2846698,89.501 82.652,89.501 C82.3573319,89.501 82.0843346,89.5551661 81.833,89.6635 C81.5816654,89.7718339 81.3606676,89.9191657 81.17,90.1055 C80.9793324,90.2918343 80.8276672,90.5041655 80.715,90.7425 C80.6023328,90.9808345 80.5373334,91.2299987 80.52,91.49 L84.667,91.49 Z M85.564,91.776 L85.564,91.971 C85.564,92.0403337 85.5596667,92.1139996 85.551,92.192 L80.507,92.192 C80.5156667,92.4953349 80.5763328,92.781332 80.689,93.05 C80.8016672,93.318668 80.9576657,93.5526657 81.157,93.752 C81.3563343,93.9513343 81.590332,94.1094994 81.859,94.2265 C82.127668,94.3435006 82.4179984,94.402 82.73,94.402 C83.1893356,94.402 83.5858317,94.2958344 83.9195,94.0835 C84.2531683,93.8711656 84.5066658,93.6263347 84.68,93.349 L85.343,93.869 C84.9789982,94.3283356 84.5781689,94.6576657 84.1405,94.857 C83.7028311,95.0563343 83.2326692,95.156 82.73,95.156 C82.2793311,95.156 81.8611686,95.0758341 81.4755,94.9155 C81.0898314,94.7551659 80.7583347,94.5320014 80.481,94.246 C80.2036653,93.9599986 79.9848341,93.622002 79.8245,93.232 C79.6641659,92.8419981 79.584,92.4173356 79.584,91.958 C79.584,91.4986644 79.6619992,91.074002 79.818,90.684 C79.9740008,90.2939981 80.1906653,89.9560014 80.468,89.67 C80.7453347,89.3839986 81.0703315,89.1608341 81.443,89.0005 C81.8156685,88.8401659 82.2186645,88.76 82.652,88.76 C83.1286691,88.76 83.5489982,88.8401659 83.913,89.0005 C84.2770018,89.1608341 84.5803321,89.3774986 84.823,89.6505 C85.0656679,89.9235014 85.2498327,90.2419982 85.3755,90.606 C85.5011673,90.9700018 85.564,91.3599979 85.564,91.776 L85.564,91.776 Z M87.755,88.916 C87.7723334,89.0806675 87.7853333,89.2626657 87.794,89.462 C87.8026667,89.6613343 87.807,89.8259994 87.807,89.956 L87.833,89.956 C88.0063342,89.6006649 88.2879981,89.3125011 88.678,89.0915 C89.068002,88.8704989 89.4796645,88.76 89.913,88.76 C90.6843372,88.76 91.2628314,88.9896644 91.6485,89.449 C92.0341686,89.9083356 92.227,90.5149962 92.227,91.269 L92.227,95 L91.343,95 L91.343,91.633 C91.343,91.3123317 91.3170003,91.0220013 91.265,90.762 C91.2129997,90.5019987 91.1241673,90.2788343 90.9985,90.0925 C90.8728327,89.9061657 90.7038344,89.7610005 90.4915,89.657 C90.2791656,89.5529995 90.0126683,89.501 89.692,89.501 C89.4579988,89.501 89.2305011,89.5486662 89.0095,89.644 C88.7884989,89.7393338 88.5913342,89.884499 88.418,90.0795 C88.2446658,90.274501 88.1060005,90.5214985 88.002,90.8205 C87.8979995,91.1195015 87.846,91.4726646 87.846,91.88 L87.846,95 L86.962,95 L86.962,90.255 C86.962,90.0903325 86.9576667,89.8780013 86.949,89.618 C86.9403333,89.3579987 86.9273334,89.124001 86.91,88.916 L87.755,88.916 Z M98.656,91.49 C98.6299999,90.9179971 98.445835,90.4435019 98.1035,90.0665 C97.761165,89.6894981 97.2736698,89.501 96.641,89.501 C96.3463319,89.501 96.0733346,89.5551661 95.822,89.6635 C95.5706654,89.7718339 95.3496676,89.9191657 95.159,90.1055 C94.9683324,90.2918343 94.8166672,90.5041655 94.704,90.7425 C94.5913328,90.9808345 94.5263334,91.2299987 94.509,91.49 L98.656,91.49 Z M99.553,91.776 L99.553,91.971 C99.553,92.0403337 99.5486667,92.1139996 99.54,92.192 L94.496,92.192 C94.5046667,92.4953349 94.5653328,92.781332 94.678,93.05 C94.7906672,93.318668 94.9466657,93.5526657 95.146,93.752 C95.3453343,93.9513343 95.579332,94.1094994 95.848,94.2265 C96.116668,94.3435006 96.4069984,94.402 96.719,94.402 C97.1783356,94.402 97.5748317,94.2958344 97.9085,94.0835 C98.2421683,93.8711656 98.4956658,93.6263347 98.669,93.349 L99.332,93.869 C98.9679982,94.3283356 98.5671689,94.6576657 98.1295,94.857 C97.6918311,95.0563343 97.2216692,95.156 96.719,95.156 C96.2683311,95.156 95.8501686,95.0758341 95.4645,94.9155 C95.0788314,94.7551659 94.7473347,94.5320014 94.47,94.246 C94.1926653,93.9599986 93.9738341,93.622002 93.8135,93.232 C93.6531659,92.8419981 93.573,92.4173356 93.573,91.958 C93.573,91.4986644 93.6509992,91.074002 93.807,90.684 C93.9630008,90.2939981 94.1796653,89.9560014 94.457,89.67 C94.7343347,89.3839986 95.0593315,89.1608341 95.432,89.0005 C95.8046685,88.8401659 96.2076645,88.76 96.641,88.76 C97.1176691,88.76 97.5379982,88.8401659 97.902,89.0005 C98.2660018,89.1608341 98.5693321,89.3774986 98.812,89.6505 C99.0546679,89.9235014 99.2388327,90.2419982 99.3645,90.606 C99.4901673,90.9700018 99.553,91.3599979 99.553,91.776 L99.553,91.776 Z M105.371,95 C105.353667,94.8353325 105.340667,94.6533343 105.332,94.454 C105.323333,94.2546657 105.319,94.0900007 105.319,93.96 L105.293,93.96 C105.119666,94.3153351 104.838002,94.6034989 104.448,94.8245 C104.057998,95.0455011 103.646336,95.156 103.213,95.156 C102.441663,95.156 101.863169,94.9263356 101.4775,94.467 C101.091831,94.0076644 100.899,93.4010038 100.899,92.647 L100.899,88.916 L101.783,88.916 L101.783,92.283 C101.783,92.6036683 101.809,92.8939987 101.861,93.154 C101.913,93.4140013 102.001833,93.6371657 102.1275,93.8235 C102.253167,94.0098343 102.422166,94.1549995 102.6345,94.259 C102.846834,94.3630005 103.113332,94.415 103.434,94.415 C103.668001,94.415 103.895499,94.3673338 104.1165,94.272 C104.337501,94.1766662 104.534666,94.031501 104.708,93.8365 C104.881334,93.641499 105.019999,93.3945015 105.124,93.0955 C105.228001,92.7964985 105.28,92.4433354 105.28,92.036 L105.28,88.916 L106.164,88.916 L106.164,93.661 C106.164,93.8256675 106.168333,94.0379987 106.177,94.298 C106.185667,94.5580013 106.198667,94.791999 106.216,95 L105.371,95 Z M108.004,90.255 C108.004,90.0903325 107.999667,89.8780013 107.991,89.618 C107.982333,89.3579987 107.969333,89.124001 107.952,88.916 L108.797,88.916 C108.814333,89.0806675 108.827333,89.2626657 108.836,89.462 C108.844667,89.6613343 108.849,89.8259994 108.849,89.956 L108.875,89.956 C109.048334,89.6006649 109.308332,89.3125011 109.655,89.0915 C110.001668,88.8704989 110.391665,88.76 110.825,88.76 C110.937667,88.76 111.0395,88.7643333 111.1305,88.773 C111.2215,88.7816667 111.314666,88.7989999 111.41,88.825 L111.293,89.657 C111.241,89.6396666 111.154334,89.6223334 111.033,89.605 C110.911666,89.5876666 110.790334,89.579 110.669,89.579 C110.434999,89.579 110.209668,89.6223329 109.993,89.709 C109.776332,89.7956671 109.587834,89.9321657 109.4275,90.1185 C109.267166,90.3048343 109.137167,90.5431652 109.0375,90.8335 C108.937833,91.1238348 108.888,91.4726646 108.888,91.88 L108.888,95 L108.004,95 L108.004,90.255 Z M115.421,90.359 C115.290999,90.1076654 115.093835,89.9018341 114.8295,89.7415 C114.565165,89.5811659 114.264002,89.501 113.926,89.501 C113.769999,89.501 113.614001,89.5183332 113.458,89.553 C113.301999,89.5876668 113.163334,89.6439996 113.042,89.722 C112.920666,89.8000004 112.823167,89.8996661 112.7495,90.021 C112.675833,90.1423339 112.639,90.2853325 112.639,90.45 C112.639,90.7360014 112.755999,90.9548326 112.99,91.1065 C113.224001,91.2581674 113.592331,91.3859995 114.095,91.49 C114.814337,91.6373341 115.345165,91.8518319 115.6875,92.1335 C116.029835,92.4151681 116.201,92.794331 116.201,93.271 C116.201,93.6176684 116.133834,93.9101655 115.9995,94.1485 C115.865166,94.3868345 115.689668,94.5818326 115.473,94.7335 C115.256332,94.8851674 115.011501,94.9934997 114.7385,95.0585 C114.465499,95.1235003 114.190335,95.156 113.913,95.156 C113.453664,95.156 113.007336,95.0606676 112.574,94.87 C112.140665,94.6793324 111.785335,94.3803354 111.508,93.973 L112.21,93.453 C112.366001,93.721668 112.595665,93.9469991 112.899,94.129 C113.202335,94.3110009 113.535998,94.402 113.9,94.402 C114.090668,94.402 114.272666,94.3846668 114.446,94.35 C114.619334,94.3153332 114.770999,94.2546671 114.901,94.168 C115.031001,94.0813329 115.135,93.970834 115.213,93.8365 C115.291,93.702166 115.33,93.5353343 115.33,93.336 C115.33,93.0153317 115.176168,92.7748341 114.8685,92.6145 C114.560832,92.4541659 114.11667,92.3046674 113.536,92.166 C113.353999,92.1226665 113.161168,92.0685003 112.9575,92.0035 C112.753832,91.9384997 112.565334,91.8431673 112.392,91.7175 C112.218666,91.5918327 112.075667,91.4336676 111.963,91.243 C111.850333,91.0523324 111.794,90.8140014 111.794,90.528 C111.794,90.2159984 111.854666,89.9495011 111.976,89.7285 C112.097334,89.5074989 112.259832,89.3255007 112.4635,89.1825 C112.667168,89.0394993 112.898999,88.9333337 113.159,88.864 C113.419001,88.7946663 113.687665,88.76 113.965,88.76 C114.389669,88.76 114.801331,88.8553324 115.2,89.046 C115.598669,89.2366676 115.897666,89.5053316 116.097,89.852 L115.421,90.359 Z M116.156,85.796 L117.339,85.796 L118.639,87.668 L117.872,87.668 L116.156,85.796 Z M131.978,90.398 C131.978,91.1000035 131.856668,91.7456637 131.614,92.335 C131.371332,92.9243363 131.035502,93.4334979 130.6065,93.8625 C130.177498,94.2915021 129.670503,94.6273321 129.0855,94.87 C128.500497,95.1126679 127.86567,95.234 127.181,95.234 C126.49633,95.234 125.861503,95.1126679 125.2765,94.87 C124.691497,94.6273321 124.184502,94.2915021 123.7555,93.8625 C123.326498,93.4334979 122.990668,92.9243363 122.748,92.335 C122.505332,91.7456637 122.384,91.1000035 122.384,90.398 C122.384,89.6959965 122.505332,89.0503363 122.748,88.461 C122.990668,87.8716637 123.326498,87.3625021 123.7555,86.9335 C124.184502,86.5044979 124.691497,86.1686679 125.2765,85.926 C125.861503,85.6833321 126.49633,85.562 127.181,85.562 C127.86567,85.562 128.500497,85.6833321 129.0855,85.926 C129.670503,86.1686679 130.177498,86.5044979 130.6065,86.9335 C131.035502,87.3625021 131.371332,87.8716637 131.614,88.461 C131.856668,89.0503363 131.978,89.6959965 131.978,90.398 L131.978,90.398 Z M130.99,90.398 C130.99,89.860664 130.903334,89.3493358 130.73,88.864 C130.556666,88.3786642 130.305335,87.9518352 129.976,87.5835 C129.646665,87.2151648 129.245836,86.9226678 128.7735,86.706 C128.301164,86.4893323 127.770336,86.381 127.181,86.381 C126.591664,86.381 126.060836,86.4893323 125.5885,86.706 C125.116164,86.9226678 124.715335,87.2151648 124.386,87.5835 C124.056665,87.9518352 123.805334,88.3786642 123.632,88.864 C123.458666,89.3493358 123.372,89.860664 123.372,90.398 C123.372,90.935336 123.458666,91.4466642 123.632,91.932 C123.805334,92.4173358 124.056665,92.8419982 124.386,93.206 C124.715335,93.5700018 125.116164,93.8603323 125.5885,94.077 C126.060836,94.2936678 126.591664,94.402 127.181,94.402 C127.770336,94.402 128.301164,94.2936678 128.7735,94.077 C129.245836,93.8603323 129.646665,93.5700018 129.976,93.206 C130.305335,92.8419982 130.556666,92.4173358 130.73,91.932 C130.903334,91.4466642 130.99,90.935336 130.99,90.398 L130.99,90.398 Z M133.376,90.255 C133.376,90.0903325 133.371667,89.8780013 133.363,89.618 C133.354333,89.3579987 133.341333,89.124001 133.324,88.916 L134.169,88.916 C134.186333,89.0806675 134.199333,89.2626657 134.208,89.462 C134.216667,89.6613343 134.221,89.8259994 134.221,89.956 L134.247,89.956 C134.420334,89.6006649 134.680332,89.3125011 135.027,89.0915 C135.373668,88.8704989 135.763665,88.76 136.197,88.76 C136.309667,88.76 136.4115,88.7643333 136.5025,88.773 C136.5935,88.7816667 136.686666,88.7989999 136.782,88.825 L136.665,89.657 C136.613,89.6396666 136.526334,89.6223334 136.405,89.605 C136.283666,89.5876666 136.162334,89.579 136.041,89.579 C135.806999,89.579 135.581668,89.6223329 135.365,89.709 C135.148332,89.7956671 134.959834,89.9321657 134.7995,90.1185 C134.639166,90.3048343 134.509167,90.5431652 134.4095,90.8335 C134.309833,91.1238348 134.26,91.4726646 134.26,91.88 L134.26,95 L133.376,95 L133.376,90.255 Z M137.647,96.222 C137.889668,96.5340016 138.221165,96.7983323 138.6415,97.015 C139.061835,97.2316678 139.505998,97.34 139.974,97.34 C140.407336,97.34 140.775665,97.2771673 141.079,97.1515 C141.382335,97.0258327 141.627166,96.8546678 141.8135,96.638 C141.999834,96.4213323 142.136333,96.1678348 142.223,95.8775 C142.309667,95.5871652 142.353,95.277335 142.353,94.948 L142.353,93.804 L142.327,93.804 C142.092999,94.1853352 141.761502,94.479999 141.3325,94.688 C140.903498,94.896001 140.468002,95 140.026,95 C139.549331,95 139.118169,94.9220008 138.7325,94.766 C138.346831,94.6099992 138.017501,94.3955014 137.7445,94.1225 C137.471499,93.8494986 137.259167,93.5223352 137.1075,93.141 C136.955833,92.7596648 136.88,92.3480022 136.88,91.906 C136.88,91.4726645 136.955833,91.0653352 137.1075,90.684 C137.259167,90.3026648 137.471499,89.9690014 137.7445,89.683 C138.017501,89.3969986 138.346831,89.1716675 138.7325,89.007 C139.118169,88.8423325 139.549331,88.76 140.026,88.76 C140.468002,88.76 140.901331,88.863999 141.326,89.072 C141.750669,89.280001 142.084332,89.5789981 142.327,89.969 L142.353,89.969 L142.353,88.916 L143.237,88.916 L143.237,94.948 C143.237,95.277335 143.1915,95.6283315 143.1005,96.001 C143.0095,96.3736685 142.840501,96.7159984 142.5935,97.028 C142.346499,97.3400016 142.010669,97.599999 141.586,97.808 C141.161331,98.016001 140.611003,98.12 139.935,98.12 C139.371664,98.12 138.834336,98.0116678 138.323,97.795 C137.811664,97.5783323 137.374002,97.2793352 137.01,96.898 L137.647,96.222 Z M137.816,91.88 C137.816,92.2006683 137.867999,92.5039986 137.972,92.79 C138.076001,93.0760014 138.225499,93.3273323 138.4205,93.544 C138.615501,93.7606678 138.855999,93.9318327 139.142,94.0575 C139.428001,94.1831673 139.752998,94.246 140.117,94.246 C140.455002,94.246 140.766999,94.1896672 141.053,94.077 C141.339001,93.9643328 141.585999,93.804001 141.794,93.596 C142.002001,93.387999 142.164499,93.1388348 142.2815,92.8485 C142.398501,92.5581652 142.457,92.2353351 142.457,91.88 C142.457,91.5593317 142.398501,91.2560014 142.2815,90.97 C142.164499,90.6839986 142.002001,90.4326678 141.794,90.216 C141.585999,89.9993323 141.339001,89.8260007 141.053,89.696 C140.766999,89.5659994 140.455002,89.501 140.117,89.501 C139.752998,89.501 139.428001,89.5659994 139.142,89.696 C138.855999,89.8260007 138.615501,89.9993323 138.4205,90.216 C138.225499,90.4326678 138.076001,90.6839986 137.972,90.97 C137.867999,91.2560014 137.816,91.5593317 137.816,91.88 L137.816,91.88 Z M148.873,91.074 C148.873,90.5453307 148.734335,90.1510013 148.457,89.891 C148.179665,89.6309987 147.776669,89.501 147.248,89.501 C146.883998,89.501 146.546002,89.5659994 146.234,89.696 C145.921998,89.8260007 145.657668,89.9993323 145.441,90.216 L144.947,89.631 C145.198335,89.3796654 145.529831,89.1716675 145.9415,89.007 C146.353169,88.8423325 146.818997,88.76 147.339,88.76 C147.668335,88.76 147.975999,88.8054995 148.262,88.8965 C148.548001,88.9875005 148.799332,89.1239991 149.016,89.306 C149.232668,89.4880009 149.401666,89.7176653 149.523,89.995 C149.644334,90.2723347 149.705,90.5973315 149.705,90.97 L149.705,93.635 C149.705,93.8690012 149.713667,94.1116654 149.731,94.363 C149.748333,94.6143346 149.774333,94.8266658 149.809,95 L149.016,95 C148.99,94.8526659 148.968333,94.6923342 148.951,94.519 C148.933667,94.3456658 148.925,94.1766675 148.925,94.012 L148.899,94.012 C148.621665,94.4193354 148.307502,94.7118324 147.9565,94.8895 C147.605498,95.0671676 147.183002,95.156 146.689,95.156 C146.454999,95.156 146.214501,95.1235003 145.9675,95.0585 C145.720499,94.9934997 145.495168,94.8873341 145.2915,94.74 C145.087832,94.5926659 144.918834,94.4020012 144.7845,94.168 C144.650166,93.9339988 144.583,93.6480017 144.583,93.31 C144.583,92.8419977 144.702165,92.4715014 144.9405,92.1985 C145.178835,91.9254986 145.497331,91.721834 145.896,91.5875 C146.294669,91.453166 146.751831,91.3665002 147.2675,91.3275 C147.783169,91.2884998 148.318331,91.269 148.873,91.269 L148.873,91.074 Z M148.613,91.958 C148.248998,91.958 147.882835,91.9731665 147.5145,92.0035 C147.146165,92.0338335 146.812501,92.0944995 146.5135,92.1855 C146.214499,92.2765005 145.969668,92.4086658 145.779,92.582 C145.588332,92.7553342 145.493,92.9849986 145.493,93.271 C145.493,93.4876678 145.534166,93.6696659 145.6165,93.817 C145.698834,93.9643341 145.809333,94.0834995 145.948,94.1745 C146.086667,94.2655005 146.240499,94.3304998 146.4095,94.3695 C146.578501,94.4085002 146.749666,94.428 146.923,94.428 C147.235002,94.428 147.512332,94.3738339 147.755,94.2655 C147.997668,94.1571661 148.201333,94.0098343 148.366,93.8235 C148.530667,93.6371657 148.656333,93.4226679 148.743,93.18 C148.829667,92.9373321 148.873,92.681668 148.873,92.413 L148.873,91.958 L148.613,91.958 Z M152.273,88.916 C152.290333,89.0806675 152.303333,89.2626657 152.312,89.462 C152.320667,89.6613343 152.325,89.8259994 152.325,89.956 L152.351,89.956 C152.524334,89.6006649 152.805998,89.3125011 153.196,89.0915 C153.586002,88.8704989 153.997665,88.76 154.431,88.76 C155.202337,88.76 155.780831,88.9896644 156.1665,89.449 C156.552169,89.9083356 156.745,90.5149962 156.745,91.269 L156.745,95 L155.861,95 L155.861,91.633 C155.861,91.3123317 155.835,91.0220013 155.783,90.762 C155.731,90.5019987 155.642167,90.2788343 155.5165,90.0925 C155.390833,89.9061657 155.221834,89.7610005 155.0095,89.657 C154.797166,89.5529995 154.530668,89.501 154.21,89.501 C153.975999,89.501 153.748501,89.5486662 153.5275,89.644 C153.306499,89.7393338 153.109334,89.884499 152.936,90.0795 C152.762666,90.274501 152.624001,90.5214985 152.52,90.8205 C152.415999,91.1195015 152.364,91.4726646 152.364,91.88 L152.364,95 L151.48,95 L151.48,90.255 C151.48,90.0903325 151.475667,89.8780013 151.467,89.618 C151.458333,89.3579987 151.445333,89.124001 151.428,88.916 L152.273,88.916 Z M159.43,95 L158.546,95 L158.546,88.916 L159.43,88.916 L159.43,95 Z M159.612,86.576 C159.612,86.7580009 159.547001,86.9074994 159.417,87.0245 C159.286999,87.1415006 159.144001,87.2 158.988,87.2 C158.831999,87.2 158.689001,87.1415006 158.559,87.0245 C158.428999,86.9074994 158.364,86.7580009 158.364,86.576 C158.364,86.3939991 158.428999,86.2445006 158.559,86.1275 C158.689001,86.0104994 158.831999,85.952 158.988,85.952 C159.144001,85.952 159.286999,86.0104994 159.417,86.1275 C159.547001,86.2445006 159.612,86.3939991 159.612,86.576 L159.612,86.576 Z M165.326,89.54 L161.686,94.233 L165.456,94.233 L165.456,95 L160.516,95 L160.516,94.376 L164.143,89.657 L160.698,89.657 L160.698,88.916 L165.326,88.916 L165.326,89.54 Z M170.364,91.074 C170.364,90.5453307 170.225335,90.1510013 169.948,89.891 C169.670665,89.6309987 169.267669,89.501 168.739,89.501 C168.374998,89.501 168.037002,89.5659994 167.725,89.696 C167.412998,89.8260007 167.148668,89.9993323 166.932,90.216 L166.438,89.631 C166.689335,89.3796654 167.020831,89.1716675 167.4325,89.007 C167.844169,88.8423325 168.309997,88.76 168.83,88.76 C169.159335,88.76 169.466999,88.8054995 169.753,88.8965 C170.039001,88.9875005 170.290332,89.1239991 170.507,89.306 C170.723668,89.4880009 170.892666,89.7176653 171.014,89.995 C171.135334,90.2723347 171.196,90.5973315 171.196,90.97 L171.196,93.635 C171.196,93.8690012 171.204667,94.1116654 171.222,94.363 C171.239333,94.6143346 171.265333,94.8266658 171.3,95 L170.507,95 C170.481,94.8526659 170.459333,94.6923342 170.442,94.519 C170.424667,94.3456658 170.416,94.1766675 170.416,94.012 L170.39,94.012 C170.112665,94.4193354 169.798502,94.7118324 169.4475,94.8895 C169.096498,95.0671676 168.674002,95.156 168.18,95.156 C167.945999,95.156 167.705501,95.1235003 167.4585,95.0585 C167.211499,94.9934997 166.986168,94.8873341 166.7825,94.74 C166.578832,94.5926659 166.409834,94.4020012 166.2755,94.168 C166.141166,93.9339988 166.074,93.6480017 166.074,93.31 C166.074,92.8419977 166.193165,92.4715014 166.4315,92.1985 C166.669835,91.9254986 166.988331,91.721834 167.387,91.5875 C167.785669,91.453166 168.242831,91.3665002 168.7585,91.3275 C169.274169,91.2884998 169.809331,91.269 170.364,91.269 L170.364,91.074 Z M170.104,91.958 C169.739998,91.958 169.373835,91.9731665 169.0055,92.0035 C168.637165,92.0338335 168.303501,92.0944995 168.0045,92.1855 C167.705499,92.2765005 167.460668,92.4086658 167.27,92.582 C167.079332,92.7553342 166.984,92.9849986 166.984,93.271 C166.984,93.4876678 167.025166,93.6696659 167.1075,93.817 C167.189834,93.9643341 167.300333,94.0834995 167.439,94.1745 C167.577667,94.2655005 167.731499,94.3304998 167.9005,94.3695 C168.069501,94.4085002 168.240666,94.428 168.414,94.428 C168.726002,94.428 169.003332,94.3738339 169.246,94.2655 C169.488668,94.1571661 169.692333,94.0098343 169.857,93.8235 C170.021667,93.6371657 170.147333,93.4226679 170.234,93.18 C170.320667,92.9373321 170.364,92.681668 170.364,92.413 L170.364,91.958 L170.104,91.958 Z M175.584,89.657 L173.868,89.657 L173.868,93.206 C173.868,93.4313345 173.889666,93.6176659 173.933,93.765 C173.976334,93.9123341 174.039166,94.0271663 174.1215,94.1095 C174.203834,94.1918337 174.301333,94.2481665 174.414,94.2785 C174.526667,94.3088335 174.647999,94.324 174.778,94.324 C174.899334,94.324 175.027166,94.3066668 175.1615,94.272 C175.295834,94.2373332 175.423666,94.189667 175.545,94.129 L175.584,94.896 C175.427999,94.956667 175.265501,95.0021665 175.0965,95.0325 C174.927499,95.0628335 174.743334,95.078 174.544,95.078 C174.379333,95.078 174.206001,95.0563336 174.024,95.013 C173.841999,94.9696665 173.673001,94.8873339 173.517,94.766 C173.360999,94.6446661 173.233167,94.480001 173.1335,94.272 C173.033833,94.063999 172.984,93.7910017 172.984,93.453 L172.984,89.657 L171.723,89.657 L171.723,88.916 L172.984,88.916 L172.984,87.2 L173.868,87.2 L173.868,88.916 L175.584,88.916 L175.584,89.657 Z M177.359,95 L176.475,95 L176.475,88.916 L177.359,88.916 L177.359,95 Z M177.541,86.576 C177.541,86.7580009 177.476001,86.9074994 177.346,87.0245 C177.215999,87.1415006 177.073001,87.2 176.917,87.2 C176.760999,87.2 176.618001,87.1415006 176.488,87.0245 C176.357999,86.9074994 176.293,86.7580009 176.293,86.576 C176.293,86.3939991 176.357999,86.2445006 176.488,86.1275 C176.618001,86.0104994 176.760999,85.952 176.917,85.952 C177.073001,85.952 177.215999,86.0104994 177.346,86.1275 C177.476001,86.2445006 177.541,86.3939991 177.541,86.576 L177.541,86.576 Z M185.257,91.958 C185.257,92.4173356 185.176834,92.8419981 185.0165,93.232 C184.856166,93.622002 184.633001,93.9599986 184.347,94.246 C184.060999,94.5320014 183.718669,94.7551659 183.32,94.9155 C182.921331,95.0758341 182.483669,95.156 182.007,95.156 C181.538998,95.156 181.105669,95.0758341 180.707,94.9155 C180.308331,94.7551659 179.966001,94.5320014 179.68,94.246 C179.393999,93.9599986 179.170834,93.622002 179.0105,93.232 C178.850166,92.8419981 178.77,92.4173356 178.77,91.958 C178.77,91.4986644 178.850166,91.074002 179.0105,90.684 C179.170834,90.2939981 179.393999,89.9560014 179.68,89.67 C179.966001,89.3839986 180.308331,89.1608341 180.707,89.0005 C181.105669,88.8401659 181.538998,88.76 182.007,88.76 C182.483669,88.76 182.921331,88.8401659 183.32,89.0005 C183.718669,89.1608341 184.060999,89.3839986 184.347,89.67 C184.633001,89.9560014 184.856166,90.2939981 185.0165,90.684 C185.176834,91.074002 185.257,91.4986644 185.257,91.958 L185.257,91.958 Z M184.321,91.958 C184.321,91.6199983 184.266834,91.3015015 184.1585,91.0025 C184.050166,90.7034985 183.896334,90.4435011 183.697,90.2225 C183.497666,90.0014989 183.255001,89.8260007 182.969,89.696 C182.682999,89.5659994 182.362335,89.501 182.007,89.501 C181.651665,89.501 181.333168,89.5659994 181.0515,89.696 C180.769832,89.8260007 180.529334,90.0014989 180.33,90.2225 C180.130666,90.4435011 179.976834,90.7034985 179.8685,91.0025 C179.760166,91.3015015 179.706,91.6199983 179.706,91.958 C179.706,92.2960017 179.760166,92.6144985 179.8685,92.9135 C179.976834,93.2125015 180.130666,93.4724989 180.33,93.6935 C180.529334,93.9145011 180.769832,94.0878327 181.0515,94.2135 C181.333168,94.3391673 181.651665,94.402 182.007,94.402 C182.362335,94.402 182.682999,94.3391673 182.969,94.2135 C183.255001,94.0878327 183.497666,93.9145011 183.697,93.6935 C183.896334,93.4724989 184.050166,93.2125015 184.1585,92.9135 C184.266834,92.6144985 184.321,92.2960017 184.321,91.958 L184.321,91.958 Z M187.448,88.916 C187.465333,89.0806675 187.478333,89.2626657 187.487,89.462 C187.495667,89.6613343 187.5,89.8259994 187.5,89.956 L187.526,89.956 C187.699334,89.6006649 187.980998,89.3125011 188.371,89.0915 C188.761002,88.8704989 189.172665,88.76 189.606,88.76 C190.377337,88.76 190.955831,88.9896644 191.3415,89.449 C191.727169,89.9083356 191.92,90.5149962 191.92,91.269 L191.92,95 L191.036,95 L191.036,91.633 C191.036,91.3123317 191.01,91.0220013 190.958,90.762 C190.906,90.5019987 190.817167,90.2788343 190.6915,90.0925 C190.565833,89.9061657 190.396834,89.7610005 190.1845,89.657 C189.972166,89.5529995 189.705668,89.501 189.385,89.501 C189.150999,89.501 188.923501,89.5486662 188.7025,89.644 C188.481499,89.7393338 188.284334,89.884499 188.111,90.0795 C187.937666,90.274501 187.799001,90.5214985 187.695,90.8205 C187.590999,91.1195015 187.539,91.4726646 187.539,91.88 L187.539,95 L186.655,95 L186.655,90.255 C186.655,90.0903325 186.650667,89.8780013 186.642,89.618 C186.633333,89.3579987 186.620333,89.124001 186.603,88.916 L187.448,88.916 Z M196.51,85.796 L199.11,85.796 C199.578002,85.796 200.002665,85.8458328 200.384,85.9455 C200.765335,86.0451672 201.092499,86.1968323 201.3655,86.4005 C201.638501,86.6041677 201.848666,86.8598318 201.996,87.1675 C202.143334,87.4751682 202.217,87.8369979 202.217,88.253 C202.217,88.6690021 202.141167,89.0308318 201.9895,89.3385 C201.837833,89.6461682 201.625501,89.9018323 201.3525,90.1055 C201.079499,90.3091677 200.750169,90.4629995 200.3645,90.567 C199.978831,90.6710005 199.552002,90.723 199.084,90.723 L197.446,90.723 L197.446,95 L196.51,95 L196.51,85.796 Z M197.446,89.93 L199.032,89.93 C199.76867,89.93 200.327665,89.7870014 200.709,89.501 C201.090335,89.2149986 201.281,88.7990027 201.281,88.253 C201.281,87.6809971 201.083835,87.2628347 200.6895,86.9985 C200.295165,86.7341653 199.74267,86.602 199.032,86.602 L197.446,86.602 L197.446,89.93 Z M202.874,90.255 C202.874,90.0903325 202.869667,89.8780013 202.861,89.618 C202.852333,89.3579987 202.839333,89.124001 202.822,88.916 L203.667,88.916 C203.684333,89.0806675 203.697333,89.2626657 203.706,89.462 C203.714667,89.6613343 203.719,89.8259994 203.719,89.956 L203.745,89.956 C203.918334,89.6006649 204.178332,89.3125011 204.525,89.0915 C204.871668,88.8704989 205.261665,88.76 205.695,88.76 C205.807667,88.76 205.9095,88.7643333 206.0005,88.773 C206.0915,88.7816667 206.184666,88.7989999 206.28,88.825 L206.163,89.657 C206.111,89.6396666 206.024334,89.6223334 205.903,89.605 C205.781666,89.5876666 205.660334,89.579 205.539,89.579 C205.304999,89.579 205.079668,89.6223329 204.863,89.709 C204.646332,89.7956671 204.457834,89.9321657 204.2975,90.1185 C204.137166,90.3048343 204.007167,90.5431652 203.9075,90.8335 C203.807833,91.1238348 203.758,91.4726646 203.758,91.88 L203.758,95 L202.874,95 L202.874,90.255 Z M212.865,91.958 C212.865,92.4173356 212.784834,92.8419981 212.6245,93.232 C212.464166,93.622002 212.241001,93.9599986 211.955,94.246 C211.668999,94.5320014 211.326669,94.7551659 210.928,94.9155 C210.529331,95.0758341 210.091669,95.156 209.615,95.156 C209.146998,95.156 208.713669,95.0758341 208.315,94.9155 C207.916331,94.7551659 207.574001,94.5320014 207.288,94.246 C207.001999,93.9599986 206.778834,93.622002 206.6185,93.232 C206.458166,92.8419981 206.378,92.4173356 206.378,91.958 C206.378,91.4986644 206.458166,91.074002 206.6185,90.684 C206.778834,90.2939981 207.001999,89.9560014 207.288,89.67 C207.574001,89.3839986 207.916331,89.1608341 208.315,89.0005 C208.713669,88.8401659 209.146998,88.76 209.615,88.76 C210.091669,88.76 210.529331,88.8401659 210.928,89.0005 C211.326669,89.1608341 211.668999,89.3839986 211.955,89.67 C212.241001,89.9560014 212.464166,90.2939981 212.6245,90.684 C212.784834,91.074002 212.865,91.4986644 212.865,91.958 L212.865,91.958 Z M211.929,91.958 C211.929,91.6199983 211.874834,91.3015015 211.7665,91.0025 C211.658166,90.7034985 211.504334,90.4435011 211.305,90.2225 C211.105666,90.0014989 210.863001,89.8260007 210.577,89.696 C210.290999,89.5659994 209.970335,89.501 209.615,89.501 C209.259665,89.501 208.941168,89.5659994 208.6595,89.696 C208.377832,89.8260007 208.137334,90.0014989 207.938,90.2225 C207.738666,90.4435011 207.584834,90.7034985 207.4765,91.0025 C207.368166,91.3015015 207.314,91.6199983 207.314,91.958 C207.314,92.2960017 207.368166,92.6144985 207.4765,92.9135 C207.584834,93.2125015 207.738666,93.4724989 207.938,93.6935 C208.137334,93.9145011 208.377832,94.0878327 208.6595,94.2135 C208.941168,94.3391673 209.259665,94.402 209.615,94.402 C209.970335,94.402 210.290999,94.3391673 210.577,94.2135 C210.863001,94.0878327 211.105666,93.9145011 211.305,93.6935 C211.504334,93.4724989 211.658166,93.2125015 211.7665,92.9135 C211.874834,92.6144985 211.929,92.2960017 211.929,91.958 L211.929,91.958 Z M214.588,96.222 C214.830668,96.5340016 215.162165,96.7983323 215.5825,97.015 C216.002835,97.2316678 216.446998,97.34 216.915,97.34 C217.348336,97.34 217.716665,97.2771673 218.02,97.1515 C218.323335,97.0258327 218.568166,96.8546678 218.7545,96.638 C218.940834,96.4213323 219.077333,96.1678348 219.164,95.8775 C219.250667,95.5871652 219.294,95.277335 219.294,94.948 L219.294,93.804 L219.268,93.804 C219.033999,94.1853352 218.702502,94.479999 218.2735,94.688 C217.844498,94.896001 217.409002,95 216.967,95 C216.490331,95 216.059169,94.9220008 215.6735,94.766 C215.287831,94.6099992 214.958501,94.3955014 214.6855,94.1225 C214.412499,93.8494986 214.200167,93.5223352 214.0485,93.141 C213.896833,92.7596648 213.821,92.3480022 213.821,91.906 C213.821,91.4726645 213.896833,91.0653352 214.0485,90.684 C214.200167,90.3026648 214.412499,89.9690014 214.6855,89.683 C214.958501,89.3969986 215.287831,89.1716675 215.6735,89.007 C216.059169,88.8423325 216.490331,88.76 216.967,88.76 C217.409002,88.76 217.842331,88.863999 218.267,89.072 C218.691669,89.280001 219.025332,89.5789981 219.268,89.969 L219.294,89.969 L219.294,88.916 L220.178,88.916 L220.178,94.948 C220.178,95.277335 220.1325,95.6283315 220.0415,96.001 C219.9505,96.3736685 219.781501,96.7159984 219.5345,97.028 C219.287499,97.3400016 218.951669,97.599999 218.527,97.808 C218.102331,98.016001 217.552003,98.12 216.876,98.12 C216.312664,98.12 215.775336,98.0116678 215.264,97.795 C214.752664,97.5783323 214.315002,97.2793352 213.951,96.898 L214.588,96.222 Z M214.757,91.88 C214.757,92.2006683 214.808999,92.5039986 214.913,92.79 C215.017001,93.0760014 215.166499,93.3273323 215.3615,93.544 C215.556501,93.7606678 215.796999,93.9318327 216.083,94.0575 C216.369001,94.1831673 216.693998,94.246 217.058,94.246 C217.396002,94.246 217.707999,94.1896672 217.994,94.077 C218.280001,93.9643328 218.526999,93.804001 218.735,93.596 C218.943001,93.387999 219.105499,93.1388348 219.2225,92.8485 C219.339501,92.5581652 219.398,92.2353351 219.398,91.88 C219.398,91.5593317 219.339501,91.2560014 219.2225,90.97 C219.105499,90.6839986 218.943001,90.4326678 218.735,90.216 C218.526999,89.9993323 218.280001,89.8260007 217.994,89.696 C217.707999,89.5659994 217.396002,89.501 217.058,89.501 C216.693998,89.501 216.369001,89.5659994 216.083,89.696 C215.796999,89.8260007 215.556501,89.9993323 215.3615,90.216 C215.166499,90.4326678 215.017001,90.6839986 214.913,90.97 C214.808999,91.2560014 214.757,91.5593317 214.757,91.88 L214.757,91.88 Z M221.979,90.255 C221.979,90.0903325 221.974667,89.8780013 221.966,89.618 C221.957333,89.3579987 221.944333,89.124001 221.927,88.916 L222.772,88.916 C222.789333,89.0806675 222.802333,89.2626657 222.811,89.462 C222.819667,89.6613343 222.824,89.8259994 222.824,89.956 L222.85,89.956 C223.023334,89.6006649 223.283332,89.3125011 223.63,89.0915 C223.976668,88.8704989 224.366665,88.76 224.8,88.76 C224.912667,88.76 225.0145,88.7643333 225.1055,88.773 C225.1965,88.7816667 225.289666,88.7989999 225.385,88.825 L225.268,89.657 C225.216,89.6396666 225.129334,89.6223334 225.008,89.605 C224.886666,89.5876666 224.765334,89.579 224.644,89.579 C224.409999,89.579 224.184668,89.6223329 223.968,89.709 C223.751332,89.7956671 223.562834,89.9321657 223.4025,90.1185 C223.242166,90.3048343 223.112167,90.5431652 223.0125,90.8335 C222.912833,91.1238348 222.863,91.4726646 222.863,91.88 L222.863,95 L221.979,95 L221.979,90.255 Z M229.838,91.074 C229.838,90.5453307 229.699335,90.1510013 229.422,89.891 C229.144665,89.6309987 228.741669,89.501 228.213,89.501 C227.848998,89.501 227.511002,89.5659994 227.199,89.696 C226.886998,89.8260007 226.622668,89.9993323 226.406,90.216 L225.912,89.631 C226.163335,89.3796654 226.494831,89.1716675 226.9065,89.007 C227.318169,88.8423325 227.783997,88.76 228.304,88.76 C228.633335,88.76 228.940999,88.8054995 229.227,88.8965 C229.513001,88.9875005 229.764332,89.1239991 229.981,89.306 C230.197668,89.4880009 230.366666,89.7176653 230.488,89.995 C230.609334,90.2723347 230.67,90.5973315 230.67,90.97 L230.67,93.635 C230.67,93.8690012 230.678667,94.1116654 230.696,94.363 C230.713333,94.6143346 230.739333,94.8266658 230.774,95 L229.981,95 C229.955,94.8526659 229.933333,94.6923342 229.916,94.519 C229.898667,94.3456658 229.89,94.1766675 229.89,94.012 L229.864,94.012 C229.586665,94.4193354 229.272502,94.7118324 228.9215,94.8895 C228.570498,95.0671676 228.148002,95.156 227.654,95.156 C227.419999,95.156 227.179501,95.1235003 226.9325,95.0585 C226.685499,94.9934997 226.460168,94.8873341 226.2565,94.74 C226.052832,94.5926659 225.883834,94.4020012 225.7495,94.168 C225.615166,93.9339988 225.548,93.6480017 225.548,93.31 C225.548,92.8419977 225.667165,92.4715014 225.9055,92.1985 C226.143835,91.9254986 226.462331,91.721834 226.861,91.5875 C227.259669,91.453166 227.716831,91.3665002 228.2325,91.3275 C228.748169,91.2884998 229.283331,91.269 229.838,91.269 L229.838,91.074 Z M229.578,91.958 C229.213998,91.958 228.847835,91.9731665 228.4795,92.0035 C228.111165,92.0338335 227.777501,92.0944995 227.4785,92.1855 C227.179499,92.2765005 226.934668,92.4086658 226.744,92.582 C226.553332,92.7553342 226.458,92.9849986 226.458,93.271 C226.458,93.4876678 226.499166,93.6696659 226.5815,93.817 C226.663834,93.9643341 226.774333,94.0834995 226.913,94.1745 C227.051667,94.2655005 227.205499,94.3304998 227.3745,94.3695 C227.543501,94.4085002 227.714666,94.428 227.888,94.428 C228.200002,94.428 228.477332,94.3738339 228.72,94.2655 C228.962668,94.1571661 229.166333,94.0098343 229.331,93.8235 C229.495667,93.6371657 229.621333,93.4226679 229.708,93.18 C229.794667,92.9373321 229.838,92.681668 229.838,92.413 L229.838,91.958 L229.578,91.958 Z M233.316,89.956 C233.489334,89.6006649 233.755832,89.3125011 234.1155,89.0915 C234.475168,88.8704989 234.875998,88.76 235.318,88.76 C235.482667,88.76 235.653832,88.7773332 235.8315,88.812 C236.009168,88.8466668 236.182499,88.9138328 236.3515,89.0135 C236.520501,89.1131672 236.676499,89.2453325 236.8195,89.41 C236.962501,89.5746675 237.085999,89.7869987 237.19,90.047 C237.398001,89.6309979 237.681832,89.3125011 238.0415,89.0915 C238.401168,88.8704989 238.827998,88.76 239.322,88.76 C240.093337,88.76 240.671831,88.9896644 241.0575,89.449 C241.443169,89.9083356 241.636,90.5149962 241.636,91.269 L241.636,95 L240.752,95 L240.752,91.633 C240.752,90.9916635 240.632835,90.476002 240.3945,90.086 C240.156165,89.6959981 239.751003,89.501 239.179,89.501 C238.858332,89.501 238.587501,89.5659994 238.3665,89.696 C238.145499,89.8260007 237.967834,89.9971656 237.8335,90.2095 C237.699166,90.4218344 237.601667,90.662332 237.541,90.931 C237.480333,91.199668 237.45,91.4769986 237.45,91.763 L237.45,95 L236.566,95 L236.566,91.451 C236.566,91.1563319 236.544334,90.8876679 236.501,90.645 C236.457666,90.4023321 236.381834,90.1965008 236.2735,90.0275 C236.165166,89.8584992 236.015668,89.7285005 235.825,89.6375 C235.634332,89.5464995 235.391668,89.501 235.097,89.501 C234.888999,89.501 234.678834,89.5486662 234.4665,89.644 C234.254166,89.7393338 234.063501,89.884499 233.8945,90.0795 C233.725499,90.274501 233.589001,90.5214985 233.485,90.8205 C233.380999,91.1195015 233.329,91.4726646 233.329,91.88 L233.329,95 L232.445,95 L232.445,90.255 C232.445,90.0903325 232.440667,89.8780013 232.432,89.618 C232.423333,89.3579987 232.410333,89.124001 232.393,88.916 L233.238,88.916 C233.255333,89.0806675 233.268333,89.2626657 233.277,89.462 C233.285667,89.6613343 233.29,89.8259994 233.29,89.956 L233.316,89.956 Z" id="An-Entrepreneurs`-Or" fill="#333333" sketch:type="MSShapeGroup"></path>
                <g id="GSEA_Pantone_external" transform="translate(47.000000, 0.000000)" sketch:type="MSShapeGroup">
                    <path d="M93,29.3745286 L93,30.633323 C93,39.3245131 87.0647908,46 78.4879066,46 C69.9103639,46 63,38.3588253 63,29.5839876 C63,20.4738794 70.0736579,13 78.8941662,13 C83.6501032,13 88.3658751,15.2244822 91.3736447,19.1293972 L88.6911461,21.7741577 C86.4958957,18.6676352 82.7967605,16.6097682 79.0568017,16.6097682 C72.1866029,16.6097682 66.8209473,22.3624111 66.8209473,29.4581762 C66.8209473,36.0914992 72.1049559,42.3895518 78.7315307,42.3895518 C83.4881261,42.3895518 88.6101576,38.1486862 88.7721347,32.9842968 L80.8451341,32.9842968 L80.8451341,29.3745286 L93,29.3745286" id="Fill-56" fill="#E2A42D"></path>
                    <path d="M113.031062,19.6754869 C111.909138,17.7019474 110.465828,16.6947759 108.181725,16.6947759 C105.77556,16.6947759 103.130467,18.4166924 103.130467,21.1872643 C103.130467,23.6640495 105.454825,24.9656878 107.339632,25.7219165 L109.504271,26.6025966 C113.792646,28.3659969 117,30.8434621 117,36.1336631 C117,41.8849459 112.750581,46 107.339632,46 C102.449392,46 98.6414707,42.2208964 98,37.1408346 L101.807921,36.3009583 C101.767667,39.7862751 104.413409,42.304544 107.660368,42.304544 C110.906677,42.304544 113.231684,39.4503246 113.231684,36.1336631 C113.231684,32.7319938 110.626196,31.2630603 108.020059,30.1300773 L105.937227,29.2058733 C102.488997,27.6532921 99.36345,25.595425 99.36345,21.1872643 C99.36345,16.0650386 103.69143,13 108.261584,13 C111.628007,13 114.393863,14.7212365 116.037145,17.7869552 L113.031062,19.6754869" id="Fill-57" fill="#E2A42D"></path>
                    <path d="M122,14 L139,14 L139,17.4215558 L125.945567,17.4215558 L125.945567,25.8172249 L138.622645,25.8172249 L138.622645,29.2381362 L125.945567,29.2381362 L125.945567,40.5784442 L139,40.5784442 L139,44 L122,44 L122,14" id="Fill-58" fill="#E2A42D"></path>
                    <path d="M154.999663,20.6495281 L149.416886,33.4548283 L160.583114,33.4548283 L154.999663,20.6495281 L154.999663,20.6495281 Z M147.791726,37.0652022 L144.208004,45 L140,45 L154.999663,12 L170,45 L165.791321,45 L162.208274,37.0652022 L147.791726,37.0652022 L147.791726,37.0652022 Z" id="Fill-59" fill="#E2A42D"></path>
                    <path d="M40,1.5 C40,2.32911392 39.3278227,3 38.5010552,3 C37.6742877,3 37,2.32911392 37,1.5 C37,0.672995781 37.6742877,0 38.5010552,0 C39.3278227,0 40,0.672995781 40,1.5" id="Fill-60" fill="#B7B5B1"></path>
                    <path d="M24,1.5 C24,2.32911392 23.3280591,3 22.4989451,3 C21.6719409,3 21,2.32911392 21,1.5 C21,0.672995781 21.6719409,0 22.4989451,0 C23.3280591,0 24,0.672995781 24,1.5" id="Fill-61" fill="#B7B5B1"></path>
                    <path d="M56,1.5 C56,2.32911392 55.3289134,3 54.5018082,3 C53.6752196,3 53,2.32911392 53,1.5 C53,0.672995781 53.6752196,0 54.5018082,0 C55.3289134,0 56,0.672995781 56,1.5" id="Fill-62" fill="#B7B5B1"></path>
                    <path d="M28.4879029,28.5 C28.4879029,22.3176508 33.4281372,17.2924152 39.5019795,17.2924152 C45.5731824,17.2924152 50.5127569,22.3176508 50.5127569,28.5 C50.5127569,34.679026 45.5731824,39.7082494 39.5019795,39.7082494 C33.4281372,39.7082494 28.4879029,34.679026 28.4879029,28.5 L28.4879029,28.5 Z M23,28.5365544 C23,37.616672 30.4021035,45 39.5019795,45 C48.5985563,45 56,37.616672 56,28.5365544 C56,19.4198824 48.5985563,12 39.5019795,12 C30.4021035,12 23,19.4198824 23,28.5365544 L23,28.5365544 Z" id="Fill-63" fill="#1A1918"></path>
                    <path d="M51,9.68599425 L50.0247654,9 C50.0247654,9 37.2960215,27.3698273 37.241525,27.4586105 L37.2389903,27.4605267 L37.2396239,27.4605267 C36.9817159,27.894862 36.9189815,28.4365036 37.1154225,28.9430152 C37.4569764,29.8014661 38.4258742,30.2230268 39.2800757,29.8813072 C39.7242859,29.7037407 39.9955012,29.28218 40.242003,28.948125 L51,9.68599425" id="Fill-64" fill="#C2592D"></path>
                    <path d="M0,13 L0,44 L19,44 L19,38.8470642 L5.54611439,38.8470642 L5.54611439,30.7353417 L18.165928,30.7353417 L18.165928,25.5785441 L5.54611439,25.5785441 L5.54611439,18.1606594 L19,18.1606594 L19,13 L0,13" id="Fill-65" fill="#1A1918"></path>
                </g>
                <path d="M9.82,63.818 C9.58533216,63.5613321 9.28650182,63.3560008 8.9235,63.202 C8.56049819,63.0479992 8.15533557,62.971 7.708,62.971 C7.25333106,62.971 6.8426685,63.0534992 6.476,63.2185 C6.1093315,63.3835008 5.79766795,63.6089986 5.541,63.895 C5.28433205,64.1810014 5.08633403,64.5128314 4.947,64.8905 C4.80766597,65.2681686 4.738,65.6696645 4.738,66.095 C4.738,66.5276688 4.80766597,66.9346648 4.947,67.316 C5.08633403,67.6973352 5.28433205,68.0291653 5.541,68.3115 C5.79766795,68.5938347 6.11299813,68.8156659 6.487,68.977 C6.86100187,69.1383341 7.27899769,69.219 7.741,69.219 C8.1076685,69.219 8.44499846,69.1860003 8.753,69.12 C9.06100154,69.0539997 9.32866553,68.9586673 9.556,68.834 L9.556,66.667 L7.829,66.667 L7.829,65.743 L10.634,65.743 L10.634,69.516 C10.2233313,69.7360011 9.77600242,69.9046661 9.292,70.022 C8.80799758,70.1393339 8.28000286,70.198 7.708,70.198 C7.09933029,70.198 6.54016922,70.0971677 6.0305,69.8955 C5.52083079,69.6938323 5.0826685,69.4115018 4.716,69.0485 C4.3493315,68.6854982 4.06333436,68.2528358 3.858,67.7505 C3.65266564,67.2481642 3.55,66.6963363 3.55,66.095 C3.55,65.4863303 3.65449896,64.9308358 3.8635,64.4285 C4.07250105,63.9261642 4.36216482,63.4971684 4.7325,63.1415 C5.10283519,62.7858316 5.54099747,62.509001 6.047,62.311 C6.55300253,62.112999 7.10299703,62.014 7.697,62.014 C8.32033645,62.014 8.8758309,62.1056658 9.3635,62.289 C9.85116911,62.4723343 10.2563317,62.7179985 10.579,63.026 L9.82,63.818 Z M14.2699231,69.032 L17.7459231,69.032 L17.7459231,70 L13.1809231,70 L13.1809231,62.212 L14.2699231,62.212 L14.2699231,69.032 Z M27.0028462,66.095 C27.0028462,66.6963363 26.8983472,67.2481642 26.6893462,67.7505 C26.4803451,68.2528358 26.1925147,68.6854982 25.8258462,69.0485 C25.4591777,69.4115018 25.0228487,69.6938323 24.5168462,69.8955 C24.0108437,70.0971677 23.4608492,70.198 22.8668462,70.198 C22.2728432,70.198 21.724682,70.0971677 21.2223462,69.8955 C20.7200103,69.6938323 20.2855147,69.4115018 19.9188462,69.0485 C19.5521777,68.6854982 19.2661806,68.2528358 19.0608462,67.7505 C18.8555118,67.2481642 18.7528462,66.6963363 18.7528462,66.095 C18.7528462,65.4863303 18.8555118,64.9308358 19.0608462,64.4285 C19.2661806,63.9261642 19.5521777,63.4971684 19.9188462,63.1415 C20.2855147,62.7858316 20.7200103,62.509001 21.2223462,62.311 C21.724682,62.112999 22.2728432,62.014 22.8668462,62.014 C23.4608492,62.014 24.0108437,62.112999 24.5168462,62.311 C25.0228487,62.509001 25.4591777,62.7858316 25.8258462,63.1415 C26.1925147,63.4971684 26.4803451,63.9261642 26.6893462,64.4285 C26.8983472,64.9308358 27.0028462,65.4863303 27.0028462,66.095 L27.0028462,66.095 Z M25.8258462,66.095 C25.8258462,65.6696645 25.7561802,65.2681686 25.6168462,64.8905 C25.4775122,64.5128314 25.2795141,64.1810014 25.0228462,63.895 C24.7661782,63.6089986 24.456348,63.3835008 24.0933462,63.2185 C23.7303444,63.0534992 23.3215151,62.971 22.8668462,62.971 C22.4195106,62.971 22.014348,63.0534992 21.6513462,63.2185 C21.2883444,63.3835008 20.9803475,63.6089986 20.7273462,63.895 C20.4743449,64.1810014 20.2781802,64.5128314 20.1388462,64.8905 C19.9995122,65.2681686 19.9298462,65.6696645 19.9298462,66.095 C19.9298462,66.5276688 19.9995122,66.9346648 20.1388462,67.316 C20.2781802,67.6973352 20.4761782,68.0291653 20.7328462,68.3115 C20.9895141,68.5938347 21.2975111,68.8156659 21.6568462,68.977 C22.0161813,69.1383341 22.4195106,69.219 22.8668462,69.219 C23.3141818,69.219 23.7211777,69.1383341 24.0878462,68.977 C24.4545147,68.8156659 24.7661782,68.5938347 25.0228462,68.3115 C25.2795141,68.0291653 25.4775122,67.6973352 25.6168462,67.316 C25.7561802,66.9346648 25.8258462,66.5276688 25.8258462,66.095 L25.8258462,66.095 Z M29.1647693,62.212 L31.8487693,62.212 C32.1421041,62.212 32.4354345,62.2449997 32.7287693,62.311 C33.0221041,62.3770003 33.2842681,62.4869992 33.5152693,62.641 C33.7462704,62.7950008 33.9332686,62.9966654 34.0762693,63.246 C34.21927,63.4953346 34.2907693,63.8069981 34.2907693,64.181 C34.2907693,64.6136688 34.1661039,64.9766652 33.9167693,65.27 C33.6674347,65.5633348 33.337438,65.7649995 32.9267693,65.875 L32.9267693,65.897 C33.1761039,65.9263335 33.4071016,65.9904995 33.6197693,66.0895 C33.832437,66.1885005 34.0157685,66.3186659 34.1697693,66.48 C34.3237701,66.6413341 34.4429355,66.8319989 34.5272693,67.052 C34.611603,67.2720011 34.6537693,67.5176653 34.6537693,67.789 C34.6537693,68.1630019 34.5767701,68.4893319 34.4227693,68.768 C34.2687685,69.0466681 34.0597706,69.2758324 33.7957693,69.4555 C33.531768,69.6351676 33.2219377,69.7708329 32.8662693,69.8625 C32.5106008,69.9541671 32.1311046,70 31.7277693,70 L29.1647693,70 L29.1647693,62.212 Z M30.2537693,65.501 L31.6727693,65.501 C31.8781036,65.501 32.0742684,65.4771669 32.2612693,65.4295 C32.4482702,65.3818331 32.6114353,65.3085005 32.7507693,65.2095 C32.8901033,65.1104995 33.0001022,64.9858341 33.0807693,64.8355 C33.1614364,64.6851659 33.2017693,64.5036677 33.2017693,64.291 C33.2017693,63.8729979 33.0477708,63.5741676 32.7397693,63.3945 C32.4317677,63.2148324 32.0174386,63.125 31.4967693,63.125 L30.2537693,63.125 L30.2537693,65.501 Z M30.2537693,69.076 L31.6177693,69.076 C31.8451038,69.076 32.0742681,69.0558335 32.3052693,69.0155 C32.5362704,68.9751665 32.7452684,68.9036672 32.9322693,68.801 C33.1192702,68.6983328 33.2696021,68.5608342 33.3832693,68.3885 C33.4969365,68.2161658 33.5537693,67.9980013 33.5537693,67.734 C33.5537693,67.2719977 33.3961042,66.9383344 33.0807693,66.733 C32.7654344,66.5276656 32.3107723,66.425 31.7167693,66.425 L30.2537693,66.425 L30.2537693,69.076 Z M37.2226924,70 L36.0126924,70 L39.3896924,62.212 L40.3796924,62.212 L43.7236924,70 L42.4916924,70 L41.6996924,68.086 L38.0036924,68.086 L37.2226924,70 Z M38.3886924,67.129 L41.3036924,67.129 L39.8516924,63.477 L38.3886924,67.129 Z M46.4906155,69.032 L49.9666155,69.032 L49.9666155,70 L45.4016155,70 L45.4016155,62.212 L46.4906155,62.212 L46.4906155,69.032 Z M58.7344617,63.653 C58.5804609,63.4403323 58.371463,63.2661673 58.1074617,63.1305 C57.8434604,62.9948327 57.5464633,62.927 57.2164617,62.927 C57.0404608,62.927 56.8626292,62.9508331 56.6829617,62.9985 C56.5032941,63.0461669 56.3401291,63.1231661 56.1934617,63.2295 C56.0467943,63.3358339 55.9276288,63.4678325 55.8359617,63.6255 C55.7442945,63.7831675 55.6984617,63.9719989 55.6984617,64.192 C55.6984617,64.4046677 55.7406279,64.5824993 55.8249617,64.7255 C55.9092954,64.8685007 56.022961,64.9894995 56.1659617,65.0885 C56.3089624,65.1875005 56.4776274,65.271833 56.6719617,65.3415 C56.866296,65.411167 57.0734606,65.4826663 57.2934617,65.556 C57.557463,65.6366671 57.825127,65.7283328 58.0964617,65.831 C58.3677964,65.9336672 58.6134606,66.0693325 58.8334617,66.238 C59.0534628,66.4066675 59.2331276,66.6174987 59.3724617,66.8705 C59.5117957,67.1235013 59.5814617,67.4443314 59.5814617,67.833 C59.5814617,68.2363354 59.5062958,68.5864985 59.3559617,68.8835 C59.2056276,69.1805015 59.0057963,69.4261657 58.7564617,69.6205 C58.5071271,69.8148343 58.2192966,69.9596662 57.8929617,70.055 C57.5666267,70.1503338 57.2311301,70.198 56.8864617,70.198 C56.3951259,70.198 55.9202973,70.1026676 55.4619617,69.912 C55.003626,69.7213324 54.6241298,69.4390019 54.3234617,69.065 L55.1704617,68.35 C55.3537959,68.6213347 55.5994601,68.8413325 55.9074617,69.01 C56.2154632,69.1786675 56.5491265,69.263 56.9084617,69.263 C57.0917959,69.263 57.2751274,69.2373336 57.4584617,69.186 C57.6417959,69.1346664 57.8086276,69.0540006 57.9589617,68.944 C58.1092958,68.8339995 58.2321279,68.6965008 58.3274617,68.5315 C58.4227955,68.3664992 58.4704617,68.1666678 58.4704617,67.932 C58.4704617,67.6973322 58.4209622,67.5011675 58.3219617,67.3435 C58.2229612,67.1858325 58.0891292,67.0520006 57.9204617,66.942 C57.7517942,66.8319995 57.5556295,66.7385004 57.3319617,66.6615 C57.1082939,66.5844996 56.8717963,66.5056671 56.6224617,66.425 C56.3731271,66.3516663 56.1274629,66.2618339 55.8854617,66.1555 C55.6434605,66.0491661 55.4271293,65.9135008 55.2364617,65.7485 C55.0457941,65.5834992 54.8917956,65.3800012 54.7744617,65.138 C54.6571278,64.8959988 54.5984617,64.5953351 54.5984617,64.236 C54.5984617,63.8473314 54.6772942,63.5136681 54.8349617,63.235 C54.9926291,62.9563319 55.1979604,62.7253343 55.4509617,62.542 C55.7039629,62.3586658 55.9899601,62.2248338 56.3089617,62.1405 C56.6279633,62.0561662 56.9487934,62.014 57.2714617,62.014 C57.7261306,62.014 58.1514597,62.0946659 58.5474617,62.256 C58.9434637,62.4173341 59.2624605,62.6336653 59.5044617,62.905 L58.7344617,63.653 Z M64.3503848,70 L63.2613848,70 L63.2613848,63.169 L60.7643848,63.169 L60.7643848,62.212 L66.8473848,62.212 L66.8473848,63.169 L64.3503848,63.169 L64.3503848,70 Z M71.5283079,70.198 C71.014972,70.198 70.5676431,70.1118342 70.1863079,69.9395 C69.8049726,69.7671658 69.4896424,69.5380014 69.2403079,69.252 C68.9909733,68.9659986 68.8058085,68.6378352 68.6848079,68.2675 C68.5638073,67.8971648 68.5033079,67.514002 68.5033079,67.118 L68.5033079,62.212 L69.5923079,62.212 L69.5923079,67.052 C69.5923079,67.3160013 69.6253075,67.5781654 69.6913079,67.8385 C69.7573082,68.0988346 69.8654738,68.3316656 70.0158079,68.537 C70.166142,68.7423344 70.36414,68.9073327 70.6098079,69.032 C70.8554758,69.1566673 71.1616394,69.219 71.5283079,69.219 C71.887643,69.219 72.1919733,69.1566673 72.4413079,69.032 C72.6906424,68.9073327 72.8904738,68.7423344 73.0408079,68.537 C73.191142,68.3316656 73.2993075,68.0988346 73.3653079,67.8385 C73.4313082,67.5781654 73.4643079,67.3160013 73.4643079,67.052 L73.4643079,62.212 L74.5533079,62.212 L74.5533079,67.118 C74.5533079,67.514002 74.4928085,67.8971648 74.3718079,68.2675 C74.2508073,68.6378352 74.0656424,68.9659986 73.8163079,69.252 C73.5669733,69.5380014 73.2516431,69.7671658 72.8703079,69.9395 C72.4889726,70.1118342 72.0416438,70.198 71.5283079,70.198 L71.5283079,70.198 Z M77.067231,62.212 L79.740231,62.212 C80.2389001,62.212 80.7375618,62.2853326 81.236231,62.432 C81.7349001,62.5786674 82.1858956,62.8096651 82.589231,63.125 C82.9925663,63.4403349 83.3188964,63.8436642 83.568231,64.335 C83.8175655,64.8263358 83.942231,65.4166632 83.942231,66.106 C83.942231,66.7733367 83.8175655,67.3508309 83.568231,67.8385 C83.3188964,68.3261691 82.9925663,68.7294984 82.589231,69.0485 C82.1858956,69.3675016 81.7349001,69.6058325 81.236231,69.7635 C80.7375618,69.9211675 80.2389001,70 79.740231,70 L77.067231,70 L77.067231,62.212 Z M78.156231,69.043 L79.520231,69.043 C79.9895666,69.043 80.4240623,68.9770007 80.823731,68.845 C81.2233996,68.7129993 81.5680628,68.5223346 81.857731,68.273 C82.1473991,68.0236654 82.3728968,67.7156685 82.534231,67.349 C82.6955651,66.9823315 82.776231,66.5680023 82.776231,66.106 C82.776231,65.6219976 82.6955651,65.1966685 82.534231,64.83 C82.3728968,64.4633315 82.1473991,64.1571679 81.857731,63.9115 C81.5680628,63.6658321 81.2233996,63.478834 80.823731,63.3505 C80.4240623,63.222166 79.9895666,63.158 79.520231,63.158 L78.156231,63.158 L78.156231,69.043 Z M87.2041541,69.032 L91.2741541,69.032 L91.2741541,70 L86.1151541,70 L86.1151541,62.212 L91.1091541,62.212 L91.1091541,63.169 L87.2041541,63.169 L87.2041541,65.501 L90.8781541,65.501 L90.8781541,66.436 L87.2041541,66.436 L87.2041541,69.032 Z M98.8920772,68.438 L98.9140772,68.438 L98.9140772,62.212 L100.003077,62.212 L100.003077,70 L98.6280772,70 L94.5140772,63.642 L94.4920772,63.642 L94.4920772,70 L93.4030772,70 L93.4030772,62.212 L94.8220772,62.212 L98.8920772,68.438 Z M105.3,70 L104.211,70 L104.211,63.169 L101.714,63.169 L101.714,62.212 L107.797,62.212 L107.797,63.169 L105.3,63.169 L105.3,70 Z M113.759846,69.032 L117.829846,69.032 L117.829846,70 L112.670846,70 L112.670846,62.212 L117.664846,62.212 L117.664846,63.169 L113.759846,63.169 L113.759846,65.501 L117.433846,65.501 L117.433846,66.436 L113.759846,66.436 L113.759846,69.032 Z M125.44777,68.438 L125.46977,68.438 L125.46977,62.212 L126.55877,62.212 L126.55877,70 L125.18377,70 L121.06977,63.642 L121.04777,63.642 L121.04777,70 L119.95877,70 L119.95877,62.212 L121.37777,62.212 L125.44777,68.438 Z M131.855693,70 L130.766693,70 L130.766693,63.169 L128.269693,63.169 L128.269693,62.212 L134.352693,62.212 L134.352693,63.169 L131.855693,63.169 L131.855693,70 Z M137.152616,70 L136.063616,70 L136.063616,62.212 L138.560616,62.212 C138.934618,62.212 139.290281,62.2504996 139.627616,62.3275 C139.964951,62.4045004 140.260114,62.5273325 140.513116,62.696 C140.766117,62.8646675 140.965948,63.0864986 141.112616,63.3615 C141.259283,63.6365014 141.332616,63.971998 141.332616,64.368 C141.332616,64.9400029 141.156617,65.4019982 140.804616,65.754 C140.452614,66.1060018 139.997952,66.3296662 139.440616,66.425 L141.618616,70 L140.298616,70 L138.318616,66.535 L137.152616,66.535 L137.152616,70 Z M137.152616,65.622 L138.406616,65.622 C138.663284,65.622 138.901615,65.6000002 139.121616,65.556 C139.341617,65.5119998 139.534115,65.4405005 139.699116,65.3415 C139.864117,65.2424995 139.994282,65.1141675 140.089616,64.9565 C140.18495,64.7988325 140.232616,64.6026678 140.232616,64.368 C140.232616,64.1333322 140.18495,63.9371675 140.089616,63.7795 C139.994282,63.6218325 139.867783,63.4953338 139.710116,63.4 C139.552448,63.3046662 139.367283,63.2368335 139.154616,63.1965 C138.941948,63.1561665 138.718284,63.136 138.483616,63.136 L137.152616,63.136 L137.152616,65.622 Z M144.583539,69.032 L148.653539,69.032 L148.653539,70 L143.494539,70 L143.494539,62.212 L148.488539,62.212 L148.488539,63.169 L144.583539,63.169 L144.583539,65.501 L148.257539,65.501 L148.257539,66.436 L144.583539,66.436 L144.583539,69.032 Z M150.782462,62.212 L153.158462,62.212 C153.576464,62.212 153.957794,62.2541662 154.302462,62.3385 C154.64713,62.4228338 154.940461,62.5529991 155.182462,62.729 C155.424463,62.9050009 155.611461,63.1286653 155.743462,63.4 C155.875463,63.6713347 155.941462,63.9976648 155.941462,64.379 C155.941462,64.7676686 155.869963,65.1013319 155.726962,65.38 C155.583961,65.6586681 155.385963,65.8859991 155.132962,66.062 C154.879961,66.2380009 154.579297,66.3681662 154.230962,66.4525 C153.882627,66.5368338 153.506797,66.579 153.103462,66.579 L151.871462,66.579 L151.871462,70 L150.782462,70 L150.782462,62.212 Z M151.871462,65.655 L153.026462,65.655 C153.290463,65.655 153.534294,65.6311669 153.757962,65.5835 C153.98163,65.5358331 154.174128,65.4625005 154.335462,65.3635 C154.496796,65.2644995 154.621461,65.1343341 154.709462,64.973 C154.797462,64.8116659 154.841462,64.6136678 154.841462,64.379 C154.841462,64.1443322 154.795629,63.9481675 154.703962,63.7905 C154.612295,63.6328325 154.487629,63.5045005 154.329962,63.4055 C154.172294,63.3064995 153.983463,63.2368335 153.763462,63.1965 C153.543461,63.1561665 153.30513,63.136 153.048462,63.136 L151.871462,63.136 L151.871462,65.655 Z M159.093385,70 L158.004385,70 L158.004385,62.212 L160.501385,62.212 C160.875387,62.212 161.23105,62.2504996 161.568385,62.3275 C161.90572,62.4045004 162.200884,62.5273325 162.453885,62.696 C162.706886,62.8646675 162.906718,63.0864986 163.053385,63.3615 C163.200052,63.6365014 163.273385,63.971998 163.273385,64.368 C163.273385,64.9400029 163.097387,65.4019982 162.745385,65.754 C162.393383,66.1060018 161.938721,66.3296662 161.381385,66.425 L163.559385,70 L162.239385,70 L160.259385,66.535 L159.093385,66.535 L159.093385,70 Z M159.093385,65.622 L160.347385,65.622 C160.604053,65.622 160.842384,65.6000002 161.062385,65.556 C161.282386,65.5119998 161.474884,65.4405005 161.639885,65.3415 C161.804886,65.2424995 161.935051,65.1141675 162.030385,64.9565 C162.125719,64.7988325 162.173385,64.6026678 162.173385,64.368 C162.173385,64.1333322 162.125719,63.9371675 162.030385,63.7795 C161.935051,63.6218325 161.808552,63.4953338 161.650885,63.4 C161.493218,63.3046662 161.308053,63.2368335 161.095385,63.1965 C160.882717,63.1561665 160.659053,63.136 160.424385,63.136 L159.093385,63.136 L159.093385,65.622 Z M166.524308,69.032 L170.594308,69.032 L170.594308,70 L165.435308,70 L165.435308,62.212 L170.429308,62.212 L170.429308,63.169 L166.524308,63.169 L166.524308,65.501 L170.198308,65.501 L170.198308,66.436 L166.524308,66.436 L166.524308,69.032 Z M178.212231,68.438 L178.234231,68.438 L178.234231,62.212 L179.323231,62.212 L179.323231,70 L177.948231,70 L173.834231,63.642 L173.812231,63.642 L173.812231,70 L172.723231,70 L172.723231,62.212 L174.142231,62.212 L178.212231,68.438 Z M182.981154,69.032 L187.051154,69.032 L187.051154,70 L181.892154,70 L181.892154,62.212 L186.886154,62.212 L186.886154,63.169 L182.981154,63.169 L182.981154,65.501 L186.655154,65.501 L186.655154,66.436 L182.981154,66.436 L182.981154,69.032 Z M192.150077,70.198 C191.636742,70.198 191.189413,70.1118342 190.808077,69.9395 C190.426742,69.7671658 190.111412,69.5380014 189.862077,69.252 C189.612743,68.9659986 189.427578,68.6378352 189.306577,68.2675 C189.185577,67.8971648 189.125077,67.514002 189.125077,67.118 L189.125077,62.212 L190.214077,62.212 L190.214077,67.052 C190.214077,67.3160013 190.247077,67.5781654 190.313077,67.8385 C190.379078,68.0988346 190.487243,68.3316656 190.637577,68.537 C190.787911,68.7423344 190.98591,68.9073327 191.231577,69.032 C191.477245,69.1566673 191.783409,69.219 192.150077,69.219 C192.509413,69.219 192.813743,69.1566673 193.063077,69.032 C193.312412,68.9073327 193.512243,68.7423344 193.662577,68.537 C193.812911,68.3316656 193.921077,68.0988346 193.987077,67.8385 C194.053078,67.5781654 194.086077,67.3160013 194.086077,67.052 L194.086077,62.212 L195.175077,62.212 L195.175077,67.118 C195.175077,67.514002 195.114578,67.8971648 194.993577,68.2675 C194.872577,68.6378352 194.687412,68.9659986 194.438077,69.252 C194.188743,69.5380014 193.873413,69.7671658 193.492077,69.9395 C193.110742,70.1118342 192.663413,70.198 192.150077,70.198 L192.150077,70.198 Z M198.778001,70 L197.689001,70 L197.689001,62.212 L200.186001,62.212 C200.560002,62.212 200.915665,62.2504996 201.253001,62.3275 C201.590336,62.4045004 201.885499,62.5273325 202.138501,62.696 C202.391502,62.8646675 202.591333,63.0864986 202.738001,63.3615 C202.884668,63.6365014 202.958001,63.971998 202.958001,64.368 C202.958001,64.9400029 202.782002,65.4019982 202.430001,65.754 C202.077999,66.1060018 201.623337,66.3296662 201.066001,66.425 L203.244001,70 L201.924001,70 L199.944001,66.535 L198.778001,66.535 L198.778001,70 Z M198.778001,65.622 L200.032001,65.622 C200.288668,65.622 200.526999,65.6000002 200.747001,65.556 C200.967002,65.5119998 201.1595,65.4405005 201.324501,65.3415 C201.489501,65.2424995 201.619667,65.1141675 201.715001,64.9565 C201.810334,64.7988325 201.858001,64.6026678 201.858001,64.368 C201.858001,64.1333322 201.810334,63.9371675 201.715001,63.7795 C201.619667,63.6218325 201.493168,63.4953338 201.335501,63.4 C201.177833,63.3046662 200.992668,63.2368335 200.780001,63.1965 C200.567333,63.1561665 200.343668,63.136 200.109001,63.136 L198.778001,63.136 L198.778001,65.622 Z M208.667847,70 L207.457847,70 L210.834847,62.212 L211.824847,62.212 L215.168847,70 L213.936847,70 L213.144847,68.086 L209.448847,68.086 L208.667847,70 Z M209.833847,67.129 L212.748847,67.129 L211.296847,63.477 L209.833847,67.129 Z M218.77177,68.416 L218.79377,68.416 L220.61977,62.212 L221.81877,62.212 L223.63377,68.416 L223.65577,68.416 L225.37177,62.212 L226.52677,62.212 L224.23877,70 L223.10577,70 L221.21377,63.741 L221.19177,63.741 L219.29977,70 L218.16677,70 L215.87877,62.212 L217.05577,62.212 L218.77177,68.416 Z M228.446693,70 L227.236693,70 L230.613693,62.212 L231.603693,62.212 L234.947693,70 L233.715693,70 L232.923693,68.086 L229.227693,68.086 L228.446693,70 Z M229.612693,67.129 L232.527693,67.129 L231.075693,63.477 L229.612693,67.129 Z M237.714616,70 L236.625616,70 L236.625616,62.212 L239.122616,62.212 C239.496618,62.212 239.852281,62.2504996 240.189616,62.3275 C240.526951,62.4045004 240.822115,62.5273325 241.075116,62.696 C241.328117,62.8646675 241.527949,63.0864986 241.674616,63.3615 C241.821283,63.6365014 241.894616,63.971998 241.894616,64.368 C241.894616,64.9400029 241.718618,65.4019982 241.366616,65.754 C241.014614,66.1060018 240.559952,66.3296662 240.002616,66.425 L242.180616,70 L240.860616,70 L238.880616,66.535 L237.714616,66.535 L237.714616,70 Z M237.714616,65.622 L238.968616,65.622 C239.225284,65.622 239.463615,65.6000002 239.683616,65.556 C239.903617,65.5119998 240.096115,65.4405005 240.261116,65.3415 C240.426117,65.2424995 240.556282,65.1141675 240.651616,64.9565 C240.74695,64.7988325 240.794616,64.6026678 240.794616,64.368 C240.794616,64.1333322 240.74695,63.9371675 240.651616,63.7795 C240.556282,63.6218325 240.429783,63.4953338 240.272116,63.4 C240.114449,63.3046662 239.929284,63.2368335 239.716616,63.1965 C239.503948,63.1561665 239.280284,63.136 239.045616,63.136 L237.714616,63.136 L237.714616,65.622 Z M244.056539,62.212 L246.729539,62.212 C247.228208,62.212 247.72687,62.2853326 248.225539,62.432 C248.724208,62.5786674 249.175204,62.8096651 249.578539,63.125 C249.981874,63.4403349 250.308204,63.8436642 250.557539,64.335 C250.806874,64.8263358 250.931539,65.4166632 250.931539,66.106 C250.931539,66.7733367 250.806874,67.3508309 250.557539,67.8385 C250.308204,68.3261691 249.981874,68.7294984 249.578539,69.0485 C249.175204,69.3675016 248.724208,69.6058325 248.225539,69.7635 C247.72687,69.9211675 247.228208,70 246.729539,70 L244.056539,70 L244.056539,62.212 Z M245.145539,69.043 L246.509539,69.043 C246.978875,69.043 247.41337,68.9770007 247.813039,68.845 C248.212708,68.7129993 248.557371,68.5223346 248.847039,68.273 C249.136707,68.0236654 249.362205,67.7156685 249.523539,67.349 C249.684873,66.9823315 249.765539,66.5680023 249.765539,66.106 C249.765539,65.6219976 249.684873,65.1966685 249.523539,64.83 C249.362205,64.4633315 249.136707,64.1571679 248.847039,63.9115 C248.557371,63.6658321 248.212708,63.478834 247.813039,63.3505 C247.41337,63.222166 246.978875,63.158 246.509539,63.158 L245.145539,63.158 L245.145539,69.043 Z M256.976462,63.653 C256.822461,63.4403323 256.613463,63.2661673 256.349462,63.1305 C256.085461,62.9948327 255.788464,62.927 255.458462,62.927 C255.282461,62.927 255.10463,62.9508331 254.924962,62.9985 C254.745295,63.0461669 254.58213,63.1231661 254.435462,63.2295 C254.288795,63.3358339 254.169629,63.4678325 254.077962,63.6255 C253.986295,63.7831675 253.940462,63.9719989 253.940462,64.192 C253.940462,64.4046677 253.982628,64.5824993 254.066962,64.7255 C254.151296,64.8685007 254.264961,64.9894995 254.407962,65.0885 C254.550963,65.1875005 254.719628,65.271833 254.913962,65.3415 C255.108296,65.411167 255.315461,65.4826663 255.535462,65.556 C255.799463,65.6366671 256.067127,65.7283328 256.338462,65.831 C256.609797,65.9336672 256.855461,66.0693325 257.075462,66.238 C257.295463,66.4066675 257.475128,66.6174987 257.614462,66.8705 C257.753796,67.1235013 257.823462,67.4443314 257.823462,67.833 C257.823462,68.2363354 257.748296,68.5864985 257.597962,68.8835 C257.447628,69.1805015 257.247797,69.4261657 256.998462,69.6205 C256.749128,69.8148343 256.461297,69.9596662 256.134962,70.055 C255.808627,70.1503338 255.473131,70.198 255.128462,70.198 C254.637126,70.198 254.162298,70.1026676 253.703962,69.912 C253.245627,69.7213324 252.86613,69.4390019 252.565462,69.065 L253.412462,68.35 C253.595796,68.6213347 253.841461,68.8413325 254.149462,69.01 C254.457464,69.1786675 254.791127,69.263 255.150462,69.263 C255.333796,69.263 255.517128,69.2373336 255.700462,69.186 C255.883796,69.1346664 256.050628,69.0540006 256.200962,68.944 C256.351296,68.8339995 256.474128,68.6965008 256.569462,68.5315 C256.664796,68.3664992 256.712462,68.1666678 256.712462,67.932 C256.712462,67.6973322 256.662963,67.5011675 256.563962,67.3435 C256.464962,67.1858325 256.33113,67.0520006 256.162462,66.942 C255.993795,66.8319995 255.79763,66.7385004 255.573962,66.6615 C255.350294,66.5844996 255.113797,66.5056671 254.864462,66.425 C254.615128,66.3516663 254.369463,66.2618339 254.127462,66.1555 C253.885461,66.0491661 253.66913,65.9135008 253.478462,65.7485 C253.287795,65.5834992 253.133796,65.3800012 253.016462,65.138 C252.899128,64.8959988 252.840462,64.5953351 252.840462,64.236 C252.840462,63.8473314 252.919295,63.5136681 253.076962,63.235 C253.23463,62.9563319 253.439961,62.7253343 253.692962,62.542 C253.945963,62.3586658 254.231961,62.2248338 254.550962,62.1405 C254.869964,62.0561662 255.190794,62.014 255.513462,62.014 C255.968131,62.014 256.39346,62.0946659 256.789462,62.256 C257.185464,62.4173341 257.504461,62.6336653 257.746462,62.905 L256.976462,63.653 Z" id="GLOBAL-STUDENT-ENTRE" fill="#333333" sketch:type="MSShapeGroup"></path>
                <path d="M0.5,53.5 L260.530762,53.5" id="Line" stroke="#CFD2D2" stroke-linecap="square" sketch:type="MSShapeGroup"></path>
                <path d="M0.5,77.5 L260.530762,77.5" id="Line-Copy-2" stroke="#CFD2D2" stroke-linecap="square" sketch:type="MSShapeGroup"></path>
            </g>
        </g>
    </g>
</svg>